<?xml version="1.0" standalone="no"?>
<!DOCTYPE svg PUBLIC "-//W3C//DTD SVG 20010904//EN"
 "http://www.w3.org/TR/2001/REC-SVG-20010904/DTD/svg10.dtd">
<svg version="1.0" xmlns="http://www.w3.org/2000/svg"
 width="1200.000000pt" height="424.000000pt" viewBox="0 0 1200.000000 424.000000"
 preserveAspectRatio="xMidYMid meet">

<g transform="translate(0.000000,424.000000) scale(0.100000,-0.100000)"
fill="#000000" stroke="none">
<path d="M1083 3341 c-99 -34 -170 -99 -216 -198 l-22 -48 0 -975 0 -975 26
-56 c37 -79 90 -133 167 -171 l67 -33 975 0 975 0 67 33 c77 38 130 92 167
171 l26 56 0 975 0 975 -27 57 c-34 73 -103 142 -176 176 l-57 27 -960 2
c-903 2 -963 1 -1012 -16z m810 -501 c26 -16 60 -50 76 -76 l30 -46 81 0 81 0
31 47 c34 51 108 105 144 105 31 0 54 -26 54 -60 0 -23 -9 -35 -42 -57 -23
-16 -52 -43 -65 -61 l-22 -33 24 -35 c24 -35 28 -44 39 -96 l6 -27 113 54
c181 87 369 123 499 96 56 -12 58 -14 70 -54 7 -23 12 -85 12 -137 -1 -107
-27 -192 -86 -277 -63 -92 -179 -200 -234 -217 -33 -10 -69 9 -84 43 -16 40
-2 62 80 127 96 75 160 173 178 274 6 30 8 68 5 83 l-6 29 -71 -7 c-189 -19
-410 -123 -573 -269 l-52 -47 54 -66 c66 -81 129 -199 151 -284 31 -121 0
-248 -82 -339 -46 -51 -142 -116 -195 -131 -33 -10 -43 -8 -105 22 -83 41
-162 116 -200 189 -52 103 -42 296 18 329 23 13 29 13 53 -3 26 -17 27 -21 19
-65 -29 -163 12 -261 141 -337 l45 -26 50 32 c170 109 184 279 39 472 -67 90
-243 261 -335 327 -151 107 -296 170 -439 191 -104 14 -112 14 -117 -15 -9
-44 12 -138 45 -198 32 -61 126 -163 177 -194 61 -35 59 -115 -2 -135 -41 -14
-91 15 -183 107 -157 155 -216 342 -165 527 10 35 14 37 68 49 130 27 319 -9
498 -95 l113 -54 6 39 c4 21 18 55 32 75 31 46 25 72 -24 113 -69 56 -73 61
-73 85 0 31 24 56 54 56 12 0 43 -13 69 -30z"/>
<path d="M2013 2560 c-29 -17 -33 -25 -33 -62 0 -42 31 -107 79 -168 l20 -25
23 29 c44 54 78 128 78 168 0 33 -5 41 -32 58 -18 11 -49 20 -68 20 -19 0 -50
-9 -67 -20z"/>
<path d="M5800 2420 l0 -620 130 0 130 0 0 620 0 620 -130 0 -130 0 0 -620z"/>
<path d="M6840 2823 l0 -217 -27 26 c-134 125 -401 105 -556 -41 -64 -61 -101
-125 -122 -212 -62 -264 71 -512 309 -575 68 -18 190 -18 253 1 28 8 74 31
102 49 l51 35 0 -45 0 -44 125 0 125 0 0 620 0 620 -130 0 -130 0 0 -217z
m-130 -344 c59 -27 77 -44 108 -104 21 -41 26 -64 26 -125 0 -100 -35 -170
-108 -215 -43 -26 -59 -30 -120 -30 -101 1 -167 42 -207 130 -24 51 -25 170
-3 223 49 118 188 174 304 121z"/>
<path d="M4055 2974 c-83 -20 -211 -85 -268 -135 -66 -57 -142 -168 -167 -244
-28 -84 -39 -193 -28 -287 35 -325 317 -545 673 -525 154 9 325 62 408 127
l27 21 0 240 0 240 -122 -3 -123 -3 -5 -175 -5 -174 -48 -18 c-26 -10 -78 -21
-115 -24 -226 -21 -403 122 -419 339 -17 227 127 393 353 405 121 7 214 -24
301 -101 l32 -28 83 77 c46 43 84 80 86 84 5 12 -86 87 -142 119 -99 57 -168
73 -321 77 -102 3 -156 -1 -200 -12z"/>
<path d="M7250 2385 l0 -585 125 0 125 0 2 342 3 341 129 -214 c72 -118 149
-244 173 -281 l43 -68 58 0 58 0 169 285 170 286 3 -346 2 -345 130 0 130 0 0
585 0 586 -116 -3 -116 -3 -211 -358 c-196 -330 -213 -356 -227 -339 -8 10
-107 172 -220 360 l-205 342 -112 0 -113 0 0 -585z"/>
<path d="M9660 2790 l0 -110 -70 0 -70 0 0 -100 0 -100 69 0 69 0 4 -238 3
-238 30 -59 c36 -70 93 -118 167 -140 97 -28 275 -14 331 27 17 13 16 18 -15
101 -29 78 -35 87 -53 81 -39 -13 -133 -16 -155 -4 -42 23 -50 65 -50 275 l0
195 115 0 115 0 0 100 0 100 -115 0 -115 0 0 110 0 110 -130 0 -130 0 0 -110z"/>
<path d="M5164 2710 c-177 -27 -326 -139 -386 -290 -30 -76 -32 -239 -3 -325
39 -119 158 -236 285 -279 80 -27 246 -33 330 -11 175 45 300 171 340 344 17
73 8 201 -20 274 -74 195 -317 323 -546 287z m176 -231 c60 -27 79 -45 106
-104 35 -75 34 -182 -3 -256 -41 -79 -101 -114 -198 -114 -62 0 -78 4 -120 30
-73 45 -105 112 -105 219 0 75 3 87 33 136 59 99 181 137 287 89z"/>
<path d="M8982 2709 c-101 -13 -228 -55 -276 -91 -17 -14 -16 -18 24 -99 23
-46 44 -86 45 -87 2 -2 32 10 67 27 84 41 185 57 260 42 69 -15 104 -41 129
-95 35 -77 37 -76 -125 -76 -167 0 -228 -10 -313 -49 -179 -84 -189 -332 -17
-441 64 -40 130 -53 243 -48 83 4 105 9 150 33 29 16 61 40 72 53 l19 25 0
-52 0 -51 126 0 125 0 -3 318 c-3 301 -5 320 -26 373 -49 123 -161 199 -322
219 -93 11 -88 11 -178 -1z m268 -578 c0 -115 -124 -195 -250 -161 -59 16 -90
49 -90 98 0 85 50 109 233 111 l107 1 0 -49z"/>
<path d="M10554 2710 c-244 -36 -404 -216 -405 -456 -1 -95 12 -148 54 -227
79 -150 247 -237 457 -237 143 0 254 35 340 108 l34 29 -68 77 c-66 73 -70 76
-90 61 -62 -44 -103 -59 -184 -63 -98 -5 -156 9 -206 50 -34 28 -76 93 -76
118 0 7 111 10 339 10 l339 0 7 30 c9 39 -3 130 -26 207 -46 149 -194 268
-364 293 -77 11 -78 11 -151 0z m196 -228 c42 -26 78 -75 95 -129 l6 -23 -220
0 c-244 0 -238 -2 -205 63 61 119 208 160 324 89z"/>
<path d="M4822 1539 c-102 -22 -132 -155 -51 -224 25 -20 41 -25 85 -25 75 0
96 22 92 93 l-3 52 -55 0 c-48 0 -55 -2 -55 -20 0 -14 8 -21 28 -23 23 -3 28
-8 25 -25 -5 -33 -51 -35 -83 -3 -63 63 8 157 87 115 16 -9 24 -7 36 5 15 14
15 18 1 31 -22 22 -69 33 -107 24z"/>
<path d="M5187 1543 c-4 -3 -7 -55 -7 -114 0 -120 8 -139 61 -139 22 0 29 5
29 20 0 11 -7 23 -15 26 -12 5 -15 25 -15 94 0 49 -3 95 -6 104 -6 16 -35 22
-47 9z"/>
<path d="M5417 1543 c-4 -3 -7 -23 -7 -44 0 -37 -1 -38 -29 -33 -83 17 -133
-102 -65 -155 18 -14 40 -19 84 -19 l60 0 0 129 c0 118 -2 129 -18 129 -10 0
-22 -3 -25 -7z m-13 -149 c8 -22 -12 -56 -31 -52 -22 4 -38 32 -30 52 8 21 53
21 61 0z"/>
<path d="M6217 1543 c-12 -11 -7 -41 7 -46 21 -8 48 16 40 36 -6 17 -35 23
-47 10z"/>
<path d="M6475 1538 c-3 -8 -4 -66 -3 -129 l3 -114 25 0 c18 0 26 6 28 23 l3
23 30 -26 c35 -29 57 -32 66 -8 4 11 -4 25 -25 44 l-32 28 26 26 c21 21 23 29
14 40 -17 21 -34 19 -56 -6 -19 -21 -19 -21 -24 42 -4 57 -7 64 -28 67 -12 2
-24 -3 -27 -10z"/>
<path d="M7109 1532 c-29 -14 -34 -23 -37 -55 -4 -46 8 -62 56 -78 47 -15 62
-27 55 -45 -7 -19 -52 -18 -75 3 -17 16 -20 16 -35 0 -16 -15 -15 -18 7 -42
19 -20 33 -25 70 -25 115 0 123 130 10 155 -35 8 -47 22 -31 38 8 8 20 8 43
-1 27 -10 35 -9 47 3 14 13 13 17 -4 34 -30 28 -66 33 -106 13z"/>
<path d="M8959 1536 c-65 -21 -66 -102 -2 -130 60 -27 68 -32 68 -47 0 -20
-49 -23 -65 -5 -15 20 -34 20 -49 2 -9 -10 -7 -18 6 -35 23 -28 70 -40 110
-29 39 10 55 37 51 86 -3 34 -7 38 -53 57 -52 20 -67 33 -59 47 8 12 48 10 62
-4 10 -9 16 -8 29 5 16 15 16 18 -1 36 -22 25 -55 30 -97 17z"/>
<path d="M9286 1528 c-3 -13 -6 -61 -6 -108 0 -109 6 -132 34 -128 18 3 22 12
26 58 4 49 8 55 29 58 31 5 41 -12 41 -71 0 -44 2 -48 23 -45 18 2 23 10 25
47 4 58 -3 86 -30 111 -24 22 -63 26 -75 8 -5 -8 -10 6 -13 37 -4 41 -9 51
-26 53 -15 2 -23 -4 -28 -20z"/>
<path d="M9690 1433 c0 -129 5 -143 52 -143 37 0 48 27 20 49 -19 14 -22 28
-24 111 -3 90 -4 95 -25 98 -23 3 -23 2 -23 -115z"/>
<path d="M10306 1535 c-9 -25 -7 -218 3 -233 5 -8 17 -12 27 -10 15 2 20 15
24 58 4 49 8 55 29 58 31 5 41 -12 41 -71 0 -44 2 -48 23 -45 19 3 22 10 25
59 3 49 -1 61 -23 88 -28 32 -67 41 -82 19 -5 -8 -10 6 -13 37 -4 41 -9 51
-26 53 -13 2 -24 -4 -28 -13z"/>
<path d="M10517 1543 c-22 -21 2 -56 31 -46 20 7 15 53 -6 53 -10 0 -22 -3
-25 -7z"/>
<path d="M3892 1527 c-9 -10 0 -29 33 -80 37 -54 45 -75 45 -112 0 -41 2 -45
25 -45 23 0 25 4 25 45 0 37 8 58 45 112 33 51 42 70 33 80 -19 23 -37 14 -71
-37 l-34 -50 -31 50 c-32 51 -51 61 -70 37z"/>
<path d="M5972 1518 c2 -19 10 -24 40 -26 l37 -3 3 -97 c3 -92 4 -97 26 -100
22 -3 22 -1 22 97 l0 101 34 0 c35 0 63 21 51 40 -4 6 -49 10 -111 10 -104 0
-105 0 -102 -22z"/>
<path d="M8432 1518 c2 -19 10 -24 41 -26 l37 -3 0 -100 c0 -99 0 -99 25 -99
25 0 25 0 25 99 l0 100 38 3 c30 2 38 7 40 26 3 22 2 22 -103 22 -105 0 -106
0 -103 -22z"/>
<path d="M6854 1503 c-4 -15 -14 -36 -22 -45 -14 -16 -13 -20 0 -35 9 -10 18
-38 21 -63 6 -50 26 -70 69 -70 23 0 28 4 28 25 0 18 -5 25 -20 25 -16 0 -20
7 -20 34 0 28 4 35 23 38 31 4 32 52 0 56 -15 2 -23 11 -25 30 -4 40 -45 44
-54 5z"/>
<path d="M4117 1459 c-9 -5 -24 -24 -33 -40 -31 -62 13 -129 85 -129 84 1 121
92 62 151 -31 31 -79 38 -114 18z m67 -45 c22 -8 21 -63 0 -71 -36 -13 -68 33
-44 62 14 17 21 18 44 9z"/>
<path d="M4287 1463 c-4 -3 -7 -33 -7 -65 0 -49 4 -63 24 -83 20 -20 33 -23
82 -22 33 0 62 6 66 11 11 15 10 138 -1 154 -5 8 -17 12 -27 10 -15 -2 -20
-14 -22 -55 -3 -54 -21 -80 -47 -69 -10 4 -15 19 -15 50 0 24 -3 51 -6 60 -6
16 -35 22 -47 9z"/>
<path d="M4484 1455 c-3 -6 -4 -45 -2 -86 3 -71 4 -74 28 -74 23 0 25 4 30 60
5 58 6 60 33 60 31 0 51 23 36 41 -13 16 -119 15 -125 -1z"/>
<path d="M5005 1448 c-15 -14 -28 -38 -32 -60 -5 -32 -1 -41 25 -68 43 -43
100 -43 136 1 35 41 34 83 -3 120 -37 37 -88 39 -126 7z m83 -40 c31 -31 3
-76 -39 -63 -33 11 -18 75 16 75 6 0 16 -5 23 -12z"/>
<path d="M5515 1445 c-19 -18 -25 -35 -25 -69 0 -62 33 -88 104 -84 45 3 51 6
54 27 4 22 1 24 -33 18 -38 -6 -65 -1 -65 14 0 5 18 9 39 9 56 0 71 8 71 39 0
66 -96 96 -145 46z m93 -42 c2 -9 -7 -13 -27 -13 -30 0 -39 9 -24 24 11 10 46
3 51 -11z"/>
<path d="M5690 1451 c-11 -22 -13 -103 -4 -139 5 -16 13 -22 28 -20 18 3 21
11 24 53 3 52 22 78 48 68 8 -3 14 -20 14 -42 0 -60 10 -82 34 -79 18 3 21 11
24 61 3 67 -13 103 -52 113 -13 3 -33 1 -44 -5 -14 -7 -23 -8 -27 -1 -10 16
-34 11 -45 -9z"/>
<path d="M6214 1457 c-3 -8 -4 -47 -2 -88 3 -63 6 -74 22 -77 10 -2 22 2 27
10 12 18 11 125 -1 149 -12 22 -38 25 -46 6z"/>
<path d="M6321 1444 c-65 -54 -28 -154 57 -154 50 0 85 32 60 56 -12 13 -19
13 -42 2 -25 -11 -30 -10 -42 7 -18 24 -18 30 1 49 13 12 20 13 41 4 23 -11
28 -9 41 7 12 18 12 22 -8 38 -30 24 -72 21 -108 -9z"/>
<path d="M6666 1445 c-36 -33 -37 -95 -1 -131 22 -21 33 -25 78 -22 46 3 52 6
55 27 4 22 1 24 -33 18 -38 -6 -65 -1 -65 14 0 5 18 9 39 9 56 0 71 8 71 39 0
65 -91 95 -144 46z m92 -42 c2 -9 -7 -13 -27 -13 -30 0 -39 9 -24 24 11 10 46
3 51 -11z"/>
<path d="M7267 1463 c-13 -12 -7 -104 8 -133 17 -33 38 -40 110 -37 l50 2 0
85 c0 84 0 85 -25 85 -23 0 -25 -4 -28 -57 -3 -57 -15 -74 -47 -62 -10 4 -15
20 -15 49 0 24 -3 50 -6 59 -6 16 -35 22 -47 9z"/>
<path d="M7489 1441 c-20 -20 -29 -39 -29 -61 0 -65 82 -111 141 -80 39 21 13
66 -27 48 -17 -8 -27 -8 -39 2 -35 29 -1 80 39 58 14 -8 22 -6 35 7 15 15 14
18 -8 36 -34 28 -77 24 -112 -10z"/>
<path d="M7669 1441 c-60 -60 -20 -151 67 -151 54 0 81 33 49 60 -12 10 -18
10 -30 0 -21 -18 -55 -3 -55 24 0 34 23 50 51 36 17 -10 24 -9 38 5 15 15 14
18 -8 36 -34 28 -77 24 -112 -10z"/>
<path d="M7849 1441 c-38 -38 -40 -91 -4 -126 19 -20 34 -25 73 -25 31 0 54 5
62 15 19 22 2 38 -35 31 -34 -7 -65 0 -65 15 0 5 22 9 50 9 57 0 77 21 60 64
-20 54 -95 63 -141 17z m91 -36 c0 -10 -10 -15 -30 -15 -29 0 -38 9 -23 23 13
13 53 7 53 -8z"/>
<path d="M8036 1451 c-29 -32 -17 -63 34 -88 34 -16 41 -23 28 -28 -9 -4 -26
-1 -38 5 -18 10 -25 9 -39 -5 -15 -15 -15 -17 3 -31 27 -19 100 -18 120 2 20
19 21 58 2 73 -8 7 -27 16 -42 20 -15 4 -30 13 -32 20 -4 11 4 12 31 7 39 -7
56 6 37 29 -18 22 -83 19 -104 -4z"/>
<path d="M8199 1451 c-20 -16 -22 -23 -14 -47 7 -20 21 -32 45 -40 44 -14 56
-40 14 -30 -52 12 -58 11 -62 -8 -5 -24 14 -36 61 -36 54 0 77 15 77 49 0 32
-16 49 -54 59 -38 10 -31 27 9 24 29 -2 35 1 35 16 0 36 -73 44 -111 13z"/>
<path d="M8646 1444 c-58 -59 -20 -154 62 -154 85 0 125 95 64 153 -38 37 -89
37 -126 1z m88 -40 c19 -18 19 -20 6 -45 -18 -33 -70 -18 -70 21 0 19 19 40
36 40 7 0 20 -7 28 -16z"/>
<path d="M9149 1455 c-54 -29 -60 -107 -12 -145 54 -42 157 -8 112 37 -8 8
-18 8 -35 1 -17 -8 -27 -8 -39 2 -35 29 -2 80 38 58 40 -21 66 21 30 48 -23
17 -61 17 -94 -1z"/>
<path d="M9509 1441 c-21 -21 -29 -39 -29 -64 0 -95 138 -122 175 -35 40 96
-73 172 -146 99z m95 -43 c23 -38 -35 -78 -61 -42 -17 23 -16 29 3 49 20 19
43 16 58 -7z"/>
<path d="M9819 1441 c-37 -38 -39 -87 -5 -124 22 -24 31 -26 88 -24 l63 2 3
83 c2 67 0 83 -13 88 -8 4 -21 1 -28 -4 -8 -7 -18 -7 -27 -2 -26 17 -51 11
-81 -19z m91 -65 c0 -19 -16 -36 -35 -36 -7 0 -35 32 -35 40 0 5 7 16 16 24
21 21 54 4 54 -28z"/>
<path d="M10005 1461 c-3 -2 -5 -42 -5 -88 0 -82 0 -83 25 -83 24 0 25 3 25
54 0 56 15 81 42 71 18 -7 42 20 35 39 -4 10 -21 14 -62 13 -31 -1 -58 -3 -60
-6z"/>
<path d="M10159 1451 c-20 -16 -22 -23 -14 -47 7 -20 21 -32 45 -40 44 -14 56
-40 14 -30 -52 12 -58 11 -62 -8 -5 -24 14 -36 61 -36 54 0 77 15 77 49 0 32
-16 49 -54 59 -38 10 -31 27 9 24 29 -2 35 1 35 16 0 36 -73 44 -111 13z"/>
<path d="M10517 1464 c-4 -4 -7 -45 -7 -91 0 -82 0 -83 25 -83 l26 0 -3 87
c-2 70 -6 88 -18 91 -9 1 -19 0 -23 -4z"/>
<path d="M10596 1463 c-3 -4 -6 -59 -6 -124 0 -99 3 -118 16 -123 25 -10 44
12 44 50 0 32 2 33 30 28 24 -5 35 -1 60 24 37 38 40 80 6 118 -20 24 -32 28
-84 30 -33 1 -63 0 -66 -3z m113 -67 c22 -26 -10 -63 -44 -50 -15 6 -21 45 -8
57 11 12 40 8 52 -7z"/>
</g>
</svg>
