<?xml version="1.0" encoding="UTF-8"?>
<!DOCTYPE svg PUBLIC "-//W3C//DTD SVG 1.1//EN" "http://www.w3.org/Graphics/SVG/1.1/DTD/svg11.dtd">
<svg xmlns="http://www.w3.org/2000/svg" version="1.1" width="1200px" height="424px" style="shape-rendering:geometricPrecision; text-rendering:geometricPrecision; image-rendering:optimizeQuality; fill-rule:evenodd; clip-rule:evenodd" xmlns:xlink="http://www.w3.org/1999/xlink">
<g><path style="opacity:0.999" fill="#feb502" d="M 110.5,87.5 C 175.168,87.3333 239.834,87.5 304.5,88C 318.676,91.5088 327.509,100.342 331,114.5C 331.667,179.167 331.667,243.833 331,308.5C 327.491,322.676 318.658,331.509 304.5,335C 239.833,335.667 175.167,335.667 110.5,335C 96.3245,331.491 87.4912,322.658 84,308.5C 83.3333,243.833 83.3333,179.167 84,114.5C 87.6909,100.31 96.5242,91.3101 110.5,87.5 Z"/></g>
<g><path style="opacity:1" fill="#433000" d="M 179.5,136.5 C 188.475,137.496 194.809,142.163 198.5,150.5C 204.5,151.833 210.5,151.833 216.5,150.5C 220.436,141.554 227.102,137.221 236.5,137.5C 238.65,139.922 238.983,142.589 237.5,145.5C 234.528,147.306 231.695,149.306 229,151.5C 227.961,153.746 226.794,155.913 225.5,158C 229.997,162.162 232.497,167.328 233,173.5C 253.692,159.894 276.025,155.561 300,160.5C 305.611,189.45 295.778,211.616 270.5,227C 263.667,227.5 260.5,224.333 261,217.5C 264.664,213.416 268.83,209.916 273.5,207C 283.572,197.69 288.238,186.19 287.5,172.5C 277.129,171.606 267.129,173.106 257.5,177C 242.75,183.12 229.584,191.62 218,202.5C 217.333,203.167 217.333,203.833 218,204.5C 228.364,214.892 235.364,227.226 239,241.5C 239.907,264.673 229.241,279.673 207,286.5C 184.447,278.93 174.447,263.264 177,239.5C 177.222,234.782 179.556,231.782 184,230.5C 185.982,230.99 187.649,231.99 189,233.5C 183.782,252.391 189.948,266.058 207.5,274.5C 221.694,268.443 227.86,257.777 226,242.5C 224.054,235.942 221.054,229.942 217,224.5C 199.66,201.491 177.494,184.991 150.5,175C 142.986,172.865 135.319,172.032 127.5,172.5C 126.68,184.874 130.513,195.541 139,204.5C 144.025,208.862 149.025,213.196 154,217.5C 154.696,224.639 151.529,227.806 144.5,227C 119.223,211.618 109.39,189.451 115,160.5C 116.945,159.137 119.112,158.303 121.5,158C 143.301,156.659 163.467,161.825 182,173.5C 182.809,167.558 184.976,162.224 188.5,157.5C 187.306,151.934 183.973,148.434 178.5,147C 175.54,142.979 175.873,139.479 179.5,136.5 Z"/></g>
<g><path style="opacity:0.967" fill="#ffb602" d="M 578.5,143.5 C 587.5,143.5 596.5,143.5 605.5,143.5C 605.5,185.5 605.5,227.5 605.5,269.5C 596.5,269.5 587.5,269.5 578.5,269.5C 578.5,227.5 578.5,185.5 578.5,143.5 Z"/></g>
<g><path style="opacity:0.98" fill="#ffb502" d="M 683.5,143.5 C 692.5,143.5 701.5,143.5 710.5,143.5C 710.5,185.5 710.5,227.5 710.5,269.5C 701.833,269.5 693.167,269.5 684.5,269.5C 684.665,266.482 684.498,263.482 684,260.5C 674.082,269.089 662.582,272.256 649.5,270C 624.443,264.94 611.777,249.607 611.5,224C 612.248,194.75 627.248,178.917 656.5,176.5C 666.625,176.595 675.458,179.928 683,186.5C 683.5,172.171 683.667,157.837 683.5,143.5 Z M 654.5,199.5 C 676.246,198.417 685.746,208.75 683,230.5C 678.091,244.706 668.258,250.206 653.5,247C 639.867,239.712 635.367,228.545 640,213.5C 642.871,206.675 647.704,202.008 654.5,199.5 Z"/></g>
<g><path style="opacity:0.975" fill="#ffb502" d="M 418.5,148.5 C 434.857,147.898 449.857,152.065 463.5,161C 466.551,163.714 469.218,166.714 471.5,170C 465.99,175.844 460.157,181.344 454,186.5C 438.337,171.5 420.837,169 401.5,179C 387.182,190.758 382.682,205.591 388,223.5C 394.586,239.057 406.42,247.057 423.5,247.5C 430.548,247.304 437.215,245.637 443.5,242.5C 444.499,230.852 444.832,219.186 444.5,207.5C 452.833,207.5 461.167,207.5 469.5,207.5C 469.667,223.837 469.5,240.17 469,256.5C 450.684,269.031 430.517,273.531 408.5,270C 379.417,264.251 362.583,246.751 358,217.5C 355.713,184.891 369.88,163.058 400.5,152C 406.581,150.503 412.581,149.336 418.5,148.5 Z"/></g>
<g><path style="opacity:0.957" fill="#402e00" d="M 723.5,150.5 C 731.174,150.334 738.841,150.5 746.5,151C 761.292,174.75 775.959,198.583 790.5,222.5C 805.17,199.165 819.337,175.498 833,151.5C 840.747,150.518 848.58,150.185 856.5,150.5C 856.5,190.167 856.5,229.833 856.5,269.5C 847.833,269.5 839.167,269.5 830.5,269.5C 830.667,246.498 830.5,223.498 830,200.5C 819.167,218.833 808.333,237.167 797.5,255.5C 792.869,256.662 788.202,256.828 783.5,256C 772.541,238.584 761.708,221.084 751,203.5C 750.667,225.167 750.333,246.833 750,268.5C 741.251,269.484 732.418,269.817 723.5,269.5C 723.5,229.833 723.5,190.167 723.5,150.5 Z"/></g>
<g><path style="opacity:0.961" fill="#402e00" d="M 965.5,158.5 C 974.5,158.5 983.5,158.5 992.5,158.5C 992.5,165.833 992.5,173.167 992.5,180.5C 999.833,180.5 1007.17,180.5 1014.5,180.5C 1014.5,187.5 1014.5,194.5 1014.5,201.5C 1007.17,201.5 999.833,201.5 992.5,201.5C 992.333,215.171 992.5,228.837 993,242.5C 994.167,245 996,246.833 998.5,248C 1003.85,249.133 1008.85,248.3 1013.5,245.5C 1016.07,251.715 1018.74,257.882 1021.5,264C 1014.8,268.679 1007.3,270.846 999,270.5C 984.062,271.042 973.395,264.709 967,251.5C 965.559,234.89 965.059,218.223 965.5,201.5C 960.833,201.5 956.167,201.5 951.5,201.5C 951.5,194.5 951.5,187.5 951.5,180.5C 956.167,180.5 960.833,180.5 965.5,180.5C 965.5,173.167 965.5,165.833 965.5,158.5 Z"/></g>
<g><path style="opacity:1" fill="#fab201" d="M 203.5,165.5 C 215.652,164.138 219.819,169.138 216,180.5C 213.904,185.027 211.071,189.027 207.5,192.5C 200.464,186.428 197.297,178.761 198,169.5C 199.5,167.531 201.333,166.198 203.5,165.5 Z"/></g>
<g><path style="opacity:0.976" fill="#ffb502" d="M 518.5,176.5 C 539.508,174.926 556.008,182.592 568,199.5C 574.519,213.877 575.185,228.544 570,243.5C 562.256,258.889 549.756,267.723 532.5,270C 511.881,272.911 495.048,266.411 482,250.5C 474.878,239.154 472.545,226.82 475,213.5C 481.391,191.607 495.891,179.274 518.5,176.5 Z M 517.5,199.5 C 535.911,197.416 545.578,205.583 546.5,224C 544.897,242.602 534.897,250.269 516.5,247C 506.344,242.535 501.344,234.701 501.5,223.5C 501.763,211.938 507.096,203.938 517.5,199.5 Z"/></g>
<g><path style="opacity:0.958" fill="#402e00" d="M 900.5,176.5 C 913.208,175.719 925.208,178.219 936.5,184C 944.178,189.511 948.678,197.011 950,206.5C 950.5,227.497 950.667,248.497 950.5,269.5C 942.167,269.5 933.833,269.5 925.5,269.5C 925.665,266.15 925.498,262.817 925,259.5C 921.635,264.186 917.135,267.353 911.5,269C 895.848,273.206 882.014,270.039 870,259.5C 858.503,235.329 866.003,220.829 892.5,216C 902.828,215.5 913.161,215.334 923.5,215.5C 923.498,206.657 919.165,201.157 910.5,199C 898.579,197.564 887.579,200.064 877.5,206.5C 874.04,200.413 870.706,194.246 867.5,188C 877.705,181.655 888.705,177.822 900.5,176.5 Z M 899.5,231.5 C 907.5,231.5 915.5,231.5 923.5,231.5C 925.565,240.236 922.565,246.403 914.5,250C 908.147,253.321 901.814,253.321 895.5,250C 888.24,241.95 889.573,235.784 899.5,231.5 Z"/></g>
<g><path style="opacity:0.954" fill="#402e00" d="M 1056.5,176.5 C 1092.87,176.867 1110.53,195.201 1109.5,231.5C 1086.83,231.5 1064.17,231.5 1041.5,231.5C 1043.68,240.51 1049.34,246.01 1058.5,248C 1070.2,250.369 1080.36,247.536 1089,239.5C 1093.47,244.968 1098.3,250.135 1103.5,255C 1095.99,263.924 1086.32,268.924 1074.5,270C 1051.01,273.493 1032.51,265.66 1019,246.5C 1010.68,228.364 1012.01,211.03 1023,194.5C 1031.92,184.126 1043.09,178.126 1056.5,176.5 Z M 1057.5,197.5 C 1066.37,196.512 1073.87,199.179 1080,205.5C 1082.03,208.561 1083.2,211.895 1083.5,215.5C 1069.15,215.833 1054.82,215.499 1040.5,214.5C 1043.25,205.747 1048.92,200.08 1057.5,197.5 Z"/></g>
</svg>
